<svg xmlns="http://www.w3.org/2000/svg" xmlns:xlink="http://www.w3.org/1999/xlink" width="0" height="0" style="position:absolute">
	
		<symbol id="light-bulb-lamp-black" viewBox="0 0 55.254 55.254">
			<g fill="#010002"><path d="M27.629 0C17.876 0 9.941 7.934 9.941 17.687c0 4.73 1.856 9.179 5.225 12.525.106.108.266.476.273.677.057 1.468.466 4.837 2.841 7.472a3.073 3.073 0 0 0-.329.59 3.307 3.307 0 0 0 .202 2.919c-.372.971-.262 2.043.22 2.858l-.004.01c-.58 1.429-.106 3.093 1.093 3.865.064.042.976.628 2.535 1.186-.017.219-.121 2.186 1.306 3.746 1.018 1.113 2.491 1.691 4.381 1.718l.128.001c1.816-.001 3.23-.545 4.204-1.621 1.386-1.529 1.269-3.484 1.234-3.844 1.47-.526 2.376-1.077 2.533-1.18 1.213-.782 1.685-2.449 1.099-3.873l-.005-.012a3.304 3.304 0 0 0 .226-2.844 3.342 3.342 0 0 0 .2-2.935 3.105 3.105 0 0 0-.298-.541c2.351-2.639 2.767-6.031 2.827-7.512.008-.198.175-.577.281-.685 3.354-3.355 5.2-7.802 5.2-12.521C45.314 7.934 37.381 0 27.629 0zm2.164 51.618c-.396.435-1.114.651-2.067.635-1.017-.014-1.754-.258-2.192-.725-.277-.295-.412-.656-.479-.953.482.079.99.141 1.523.181.516.04.926.048 1.009.049h.082a17.9 17.9 0 0 0 2.572-.238c-.047.32-.16.733-.448 1.051zm4.463-8.416a1.59 1.59 0 0 0-.753 1.092c-.122.755.327 1.262.603 1.578.041.1-.016.232.049.217-.021.014-2.235 1.413-5.706 1.675-.401.031-.726.039-.822.04-.097-.002-.421-.01-.822-.04-3.426-.259-5.624-1.625-5.647-1.625h-.001c-.024-.039-.049-.17.046-.333.218-.245.672-.755.551-1.512a1.59 1.59 0 0 0-.753-1.093l-.034-.001c-.024-.038-.05-.167.022-.313.216-.271.618-.774.484-1.499a1.57 1.57 0 0 0-.415-.794c1.167.546 3.356 1.345 6.24 1.388h.677a15.836 15.836 0 0 0 3.193-.376 12.899 12.899 0 0 0 1.364-.363c.19-.061.382-.122.562-.191.426-.155.792-.31 1.088-.448a1.56 1.56 0 0 0-.405.784c-.134.72.26 1.215.516 1.548.04.095.02.216.048.216h.001l-.086.05zm3.737-15.115c-.644.643-1.12 1.747-1.158 2.685-.098 2.462-.992 6.266-5.324 7.644l-.155.048c-1.003.3-2.182.475-3.574.475h-.14c-7.739-.064-9.089-5.142-9.204-8.165-.037-.957-.501-2.037-1.156-2.688-2.799-2.78-4.34-6.473-4.34-10.398 0-8.098 6.589-14.687 14.688-14.687 8.098 0 14.686 6.588 14.686 14.687-.002 3.917-1.537 7.61-4.323 10.399z"></path><path d="M34.148 21.562c-6.43 5.259-12.773.216-13.04 0a.502.502 0 0 0-.812.46l2.042 13.867a.5.5 0 0 0 .99-.145L21.452 23c2.064 1.254 7.105 3.549 12.285.108l-2.381 12.614a.5.5 0 1 0 .982.186l2.617-13.867a.501.501 0 0 0-.236-.523.501.501 0 0 0-.571.044z"></path></g>
		</symbol>
	
		<symbol id="light-bulb-lamp-white" viewBox="0 0 55.254 55.254">
			<g fill="#FFF"><path d="M27.629 0C17.876 0 9.941 7.934 9.941 17.687c0 4.73 1.856 9.179 5.225 12.525.106.108.266.476.273.677.057 1.468.466 4.837 2.841 7.472a3.073 3.073 0 0 0-.329.59 3.307 3.307 0 0 0 .202 2.919c-.372.971-.262 2.043.22 2.858l-.004.01c-.58 1.429-.106 3.093 1.093 3.865.064.042.976.628 2.535 1.186-.017.219-.121 2.186 1.306 3.746 1.018 1.113 2.491 1.691 4.381 1.718l.128.001c1.816-.001 3.23-.545 4.204-1.621 1.386-1.529 1.269-3.484 1.234-3.844 1.47-.526 2.376-1.077 2.533-1.18 1.213-.782 1.685-2.449 1.099-3.873l-.005-.012a3.304 3.304 0 0 0 .226-2.844 3.342 3.342 0 0 0 .2-2.935 3.105 3.105 0 0 0-.298-.541c2.351-2.639 2.767-6.031 2.827-7.512.008-.198.175-.577.281-.685 3.354-3.355 5.2-7.802 5.2-12.521C45.314 7.934 37.381 0 27.629 0zm2.164 51.618c-.396.435-1.114.651-2.067.635-1.017-.014-1.754-.258-2.192-.725-.277-.295-.412-.656-.479-.953.482.079.99.141 1.523.181.516.04.926.048 1.009.049h.082a17.9 17.9 0 0 0 2.572-.238c-.047.32-.16.733-.448 1.051zm4.463-8.416a1.59 1.59 0 0 0-.753 1.092c-.122.755.327 1.262.603 1.578.041.1-.016.232.049.217-.021.014-2.235 1.413-5.706 1.675-.401.031-.726.039-.822.04-.097-.002-.421-.01-.822-.04-3.426-.259-5.624-1.625-5.647-1.625h-.001c-.024-.039-.049-.17.046-.333.218-.245.672-.755.551-1.512a1.59 1.59 0 0 0-.753-1.093l-.034-.001c-.024-.038-.05-.167.022-.313.216-.271.618-.774.484-1.499a1.57 1.57 0 0 0-.415-.794c1.167.546 3.356 1.345 6.24 1.388h.677a15.836 15.836 0 0 0 3.193-.376 12.899 12.899 0 0 0 1.364-.363c.19-.061.382-.122.562-.191.426-.155.792-.31 1.088-.448a1.56 1.56 0 0 0-.405.784c-.134.72.26 1.215.516 1.548.04.095.02.216.048.216h.001l-.086.05zm3.737-15.115c-.644.643-1.12 1.747-1.158 2.685-.098 2.462-.992 6.266-5.324 7.644l-.155.048c-1.003.3-2.182.475-3.574.475h-.14c-7.739-.064-9.089-5.142-9.204-8.165-.037-.957-.501-2.037-1.156-2.688-2.799-2.78-4.34-6.473-4.34-10.398 0-8.098 6.589-14.687 14.688-14.687 8.098 0 14.686 6.588 14.686 14.687-.002 3.917-1.537 7.61-4.323 10.399z"></path><path d="M34.148 21.562c-6.43 5.259-12.773.216-13.04 0a.502.502 0 0 0-.812.46l2.042 13.867a.5.5 0 0 0 .99-.145L21.452 23c2.064 1.254 7.105 3.549 12.285.108l-2.381 12.614a.5.5 0 1 0 .982.186l2.617-13.867a.501.501 0 0 0-.236-.523.501.501 0 0 0-.571.044z"></path></g>
		</symbol>
	
		<symbol id="megaphone-black" viewBox="0 0 512 512.00102">
			<path d="M486.613 0h-58.5c-13.754 0-24.941 11.188-24.941 24.941v21.47c-44.777 49.417-102.77 70.706-192.723 70.972-28.742.082-56.879 11.918-77.199 32.469a109.962 109.962 0 0 0-8.434 9.59H59.47C26.679 159.441 0 186.116 0 218.91c0 32.79 26.68 59.469 59.469 59.469h58.562c11.285 18.535 28.078 33.379 48.059 42.219-1.496 31.574-9.867 60.492-23.996 82.28-16.422 25.325-32.461 29.11-40.563 29.11-22.058 0-40.004 17.946-40.004 40.004 0 22.063 17.946 40.008 40.004 40.008 42.024 0 80.27-23.293 107.696-65.586 20.691-31.906 33.343-72.312 36.41-115.48 31.14 2.343 57.816 7.828 80.824 16.613 29.527 11.27 54.656 28.64 76.707 53.012v12.32c0 13.75 11.191 24.941 24.941 24.941h58.5c13.754 0 24.942-11.191 24.942-24.941V24.94C511.555 11.187 500.363 0 486.613 0zM59.47 248.371c-16.246 0-29.461-13.219-29.461-29.46 0-16.247 13.215-29.466 29.46-29.466h48.93a103.132 103.132 0 0 0-5.761 34.946 105.539 105.539 0 0 0 2.96 23.98zm124.58 181.715c-21.707 33.476-51.012 51.91-82.52 51.91-5.511 0-10-4.488-10-10.004 0-5.515 4.489-10 10-10 14.192 0 41.598-5.558 65.739-42.789 15.933-24.57 25.785-56.164 28.39-90.41 4.29.531 8.649.809 13.07.809 2.333 0 4.63.027 6.918.054-2.793 37.817-13.761 72.93-31.597 100.43zm219.11-71.422c-19.716-16.894-41.528-29.812-65.997-39.152-35.105-13.399-77.117-19.914-128.434-19.914-41.605 0-75.738-33.852-76.09-75.461-.163-19.817 7.63-38.703 21.95-53.188 14.742-14.914 35.137-23.5 55.95-23.562 50.753-.149 92.366-6.746 127.214-20.168 24.219-9.328 45.844-22.184 65.414-38.95zm78.386 49.145h-48.371V30.004h48.37zm0 0"></path>
		</symbol>
	
		<symbol id="megaphone-white" viewBox="0 0 512 512.00102">
			<path d="M486.613 0h-58.5c-13.754 0-24.941 11.188-24.941 24.941v21.47c-44.777 49.417-102.77 70.706-192.723 70.972-28.742.082-56.879 11.918-77.199 32.469a109.962 109.962 0 0 0-8.434 9.59H59.47C26.679 159.441 0 186.116 0 218.91c0 32.79 26.68 59.469 59.469 59.469h58.562c11.285 18.535 28.078 33.379 48.059 42.219-1.496 31.574-9.867 60.492-23.996 82.28-16.422 25.325-32.461 29.11-40.563 29.11-22.058 0-40.004 17.946-40.004 40.004 0 22.063 17.946 40.008 40.004 40.008 42.024 0 80.27-23.293 107.696-65.586 20.691-31.906 33.343-72.312 36.41-115.48 31.14 2.343 57.816 7.828 80.824 16.613 29.527 11.27 54.656 28.64 76.707 53.012v12.32c0 13.75 11.191 24.941 24.941 24.941h58.5c13.754 0 24.942-11.191 24.942-24.941V24.94C511.555 11.187 500.363 0 486.613 0zM59.47 248.371c-16.246 0-29.461-13.219-29.461-29.46 0-16.247 13.215-29.466 29.46-29.466h48.93a103.132 103.132 0 0 0-5.761 34.946 105.539 105.539 0 0 0 2.96 23.98zm124.58 181.715c-21.707 33.476-51.012 51.91-82.52 51.91-5.511 0-10-4.488-10-10.004 0-5.515 4.489-10 10-10 14.192 0 41.598-5.558 65.739-42.789 15.933-24.57 25.785-56.164 28.39-90.41 4.29.531 8.649.809 13.07.809 2.333 0 4.63.027 6.918.054-2.793 37.817-13.761 72.93-31.597 100.43zm219.11-71.422c-19.716-16.894-41.528-29.812-65.997-39.152-35.105-13.399-77.117-19.914-128.434-19.914-41.605 0-75.738-33.852-76.09-75.461-.163-19.817 7.63-38.703 21.95-53.188 14.742-14.914 35.137-23.5 55.95-23.562 50.753-.149 92.366-6.746 127.214-20.168 24.219-9.328 45.844-22.184 65.414-38.95zm78.386 49.145h-48.371V30.004h48.37zm0 0" fill="#FFF"></path>
		</symbol>
	
		<symbol id="puzzle-black" viewBox="0 0 129 129">
			<path d="M115.9 13.3c-4.3-4.3-10-6.7-16.1-6.7-6.1 0-11.8 2.4-16.1 6.7-1.9 1.9-3.4 4.1-4.5 6.5L67.3 7.9c-1.6-1.6-4.2-1.6-5.7 0l-54 54C6 63.5 6 66 7.6 67.6l54 54c.8.8 1.8 1.2 2.9 1.2 1.1 0 2.1-.4 2.9-1.2l17.2-17.2c1.1-1.1 1.5-2.8.9-4.3s-1.9-2.5-3.5-2.6c-3.5-.3-6.8-1.8-9.3-4.2a14.6 14.6 0 0 1-4.3-10.4c0-3.9 1.5-7.6 4.3-10.4 2.8-2.8 6.5-4.3 10.4-4.3 3.9 0 7.6 1.5 10.4 4.3 2.5 2.5 4 5.8 4.2 9.3.1 1.6 1.1 3 2.6 3.5 1.5.6 3.2.2 4.3-.9l16.7-16.7c.8-.8 1.2-1.8 1.2-2.9 0-1.1-.4-2.1-1.2-2.9L109.4 50c2.4-1.1 4.6-2.7 6.5-4.5 8.9-8.9 8.9-23.4 0-32.2zm-5.7 26.4c-2.4 2.4-5.5 3.9-8.9 4.2-1.6.2-2.9 1.2-3.4 2.7-.5 1.5-.2 3.1 1 4.2l13.9 13.9-8.8 8.8c-1.1-2.5-2.7-4.9-4.7-6.8-4.3-4.3-10-6.7-16.1-6.7-6.1 0-11.8 2.4-16.1 6.7-4.3 4.3-6.7 10-6.7 16.1 0 6.1 2.4 11.8 6.7 16.1 2 2 4.3 3.6 6.8 4.7l-9.3 9.3-48.4-48.2 48.2-48.2 13.9 13.9c1.1 1.1 2.8 1.5 4.2 1 1.5-.5 2.5-1.9 2.7-3.4.3-3.4 1.8-6.5 4.2-8.9 2.8-2.8 6.5-4.3 10.4-4.3 3.9 0 7.6 1.5 10.4 4.3 5.7 5.6 5.7 14.9 0 20.6z"></path>
		</symbol>
	
		<symbol id="puzzle-white" viewBox="0 0 129 129">
			<path d="M115.9 13.3c-4.3-4.3-10-6.7-16.1-6.7-6.1 0-11.8 2.4-16.1 6.7-1.9 1.9-3.4 4.1-4.5 6.5L67.3 7.9c-1.6-1.6-4.2-1.6-5.7 0l-54 54C6 63.5 6 66 7.6 67.6l54 54c.8.8 1.8 1.2 2.9 1.2 1.1 0 2.1-.4 2.9-1.2l17.2-17.2c1.1-1.1 1.5-2.8.9-4.3s-1.9-2.5-3.5-2.6c-3.5-.3-6.8-1.8-9.3-4.2a14.6 14.6 0 0 1-4.3-10.4c0-3.9 1.5-7.6 4.3-10.4 2.8-2.8 6.5-4.3 10.4-4.3 3.9 0 7.6 1.5 10.4 4.3 2.5 2.5 4 5.8 4.2 9.3.1 1.6 1.1 3 2.6 3.5 1.5.6 3.2.2 4.3-.9l16.7-16.7c.8-.8 1.2-1.8 1.2-2.9 0-1.1-.4-2.1-1.2-2.9L109.4 50c2.4-1.1 4.6-2.7 6.5-4.5 8.9-8.9 8.9-23.4 0-32.2zm-5.7 26.4c-2.4 2.4-5.5 3.9-8.9 4.2-1.6.2-2.9 1.2-3.4 2.7-.5 1.5-.2 3.1 1 4.2l13.9 13.9-8.8 8.8c-1.1-2.5-2.7-4.9-4.7-6.8-4.3-4.3-10-6.7-16.1-6.7-6.1 0-11.8 2.4-16.1 6.7-4.3 4.3-6.7 10-6.7 16.1 0 6.1 2.4 11.8 6.7 16.1 2 2 4.3 3.6 6.8 4.7l-9.3 9.3-48.4-48.2 48.2-48.2 13.9 13.9c1.1 1.1 2.8 1.5 4.2 1 1.5-.5 2.5-1.9 2.7-3.4.3-3.4 1.8-6.5 4.2-8.9 2.8-2.8 6.5-4.3 10.4-4.3 3.9 0 7.6 1.5 10.4 4.3 5.7 5.6 5.7 14.9 0 20.6z" fill="#FFF"></path>
		</symbol>
	
		<symbol id="rocket-black" viewBox="0 0 512.001 512.001">
			<path d="M75.276 368.328a7.5 7.5 0 0 0-10.606 0l-25.501 25.501a7.5 7.5 0 0 0 0 10.606 7.5 7.5 0 0 0 10.606 0l25.501-25.501a7.5 7.5 0 0 0 0-10.606zm24.808 24.808a7.5 7.5 0 0 0-10.606 0l-25.501 25.501a7.5 7.5 0 0 0 0 10.606 7.5 7.5 0 0 0 10.606 0l25.501-25.501a7.5 7.5 0 0 0 0-10.606zm49.615 49.615a7.5 7.5 0 0 0-10.606 0l-25.501 25.501a7.5 7.5 0 0 0 0 10.606 7.5 7.5 0 0 0 10.606 0l25.501-25.501a7.5 7.5 0 0 0 0-10.606zm-24.808-24.807a7.5 7.5 0 0 0-10.606 0l-25.501 25.501a7.5 7.5 0 0 0 0 10.606 7.5 7.5 0 0 0 10.606 0l25.501-25.501a7.5 7.5 0 0 0 0-10.606zM493.313.604l-156.958 45.88a7.487 7.487 0 0 0-3.199 1.896L228.265 153.271l-46.865 3.944c-66.587 5.604-129.28 34.713-176.53 81.963-9.945 9.945-3.733 26.967 10.262 28.189l91.08 7.956-9.436 9.437c-5.856 5.854-5.859 15.335 0 21.193l9.109 9.109-18.473 18.473c-7.235 7.234-7.235 19.007 0 26.241l64.815 64.815c7.234 7.235 19.008 7.235 26.241 0l18.472-18.472 8.62 8.62c6.12 6.121 16.069 6.1 22.17 0l8.948-8.948 7.956 91.079c.566 6.479 4.714 11.886 10.826 14.11 6.094 2.219 12.753.761 17.362-3.849 29.075-29.074 51.06-63.391 65.347-101.998a7.5 7.5 0 0 0-4.431-9.637 7.498 7.498 0 0 0-9.637 4.431c-13.53 36.563-34.352 69.063-61.886 96.597a1.54 1.54 0 0 1-2.638-.961l-9.051-103.622 91.792-91.792c-3.046 37.186-3.872 46.884-8.124 65.73a7.5 7.5 0 0 0 14.632 3.3c5.192-23.011 5.588-33.947 9.904-85.443l104.891-104.891a7.497 7.497 0 0 0 1.896-3.199l20.828-71.253.001-.002 25.052-85.704c3.231-11.052-7.066-21.31-18.085-18.083zM16.438 252.424a1.54 1.54 0 0 1-.96-2.638c44.748-44.748 104.121-72.315 167.18-77.623l29.17-2.455-91.767 91.767-103.623-9.051zm106.453 27.433l40.855 40.855-15.499 15.498c-16.185-16.185-37.23-37.21-40.865-40.844l15.509-15.509zm-3.439 85.149a19.112 19.112 0 0 0-2.5 3.096L98.018 349.17c-1.362-1.363-1.362-3.665 0-5.028l18.473-18.474 21.15 21.15-18.189 18.188zm17.304 16.57a4.473 4.473 0 0 1-6.33 0 4.481 4.481 0 0 1 0-6.33l149.499-149.499a4.48 4.48 0 0 1 6.33 0 4.474 4.474 0 0 1 0 6.33L185.986 332.346l-49.23 49.23zm31.104 32.408c-.895.894-1.959 1.028-2.514 1.028-.555 0-1.619-.134-2.514-1.028l-18.933-18.934a19.156 19.156 0 0 0 3.096-2.5l18.188-18.188 21.15 21.15-18.473 18.472zm49.262-9.852c-.016.016-.036.021-.053.035a.672.672 0 0 1-.903-.035l-40.375-40.377 15.498-15.499 40.854 40.855-15.021 15.021zm234.537-234.535L242.752 378.504l-40.854-40.855 95.331-95.331c6.871-6.871 8.19-18.62-.734-27.544-7.408-7.408-19.399-7.409-26.81 0l-95.332 95.332-40.855-40.855L342.405 60.344 407.552 41.3l63.148 63.149-19.041 65.148zm23.84-81.564l-51.531-51.531 72.815-21.285-21.284 72.816z"></path><path d="M381.911 130.093a49.824 49.824 0 0 0-14.763-10.208 7.5 7.5 0 1 0-6.173 13.671c22.293 10.068 27.56 39.396 10.328 56.627-13.643 13.642-35.84 13.642-49.482 0-17.242-17.242-11.997-46.547 10.328-56.627a7.5 7.5 0 0 0-6.173-13.671c-31.847 14.383-39.436 56.23-14.76 80.905 9.745 9.745 22.547 14.618 35.348 14.618 44.395 0 66.754-53.91 35.347-85.315z"></path>
		</symbol>
	
		<symbol id="rocket-white" viewBox="0 0 512.001 512.001">
			<path d="M75.276 368.328a7.5 7.5 0 0 0-10.606 0l-25.501 25.501a7.5 7.5 0 0 0 0 10.606 7.5 7.5 0 0 0 10.606 0l25.501-25.501a7.5 7.5 0 0 0 0-10.606zm24.808 24.808a7.5 7.5 0 0 0-10.606 0l-25.501 25.501a7.5 7.5 0 0 0 0 10.606 7.5 7.5 0 0 0 10.606 0l25.501-25.501a7.5 7.5 0 0 0 0-10.606zm49.615 49.615a7.5 7.5 0 0 0-10.606 0l-25.501 25.501a7.5 7.5 0 0 0 0 10.606 7.5 7.5 0 0 0 10.606 0l25.501-25.501a7.5 7.5 0 0 0 0-10.606zm-24.808-24.807a7.5 7.5 0 0 0-10.606 0l-25.501 25.501a7.5 7.5 0 0 0 0 10.606 7.5 7.5 0 0 0 10.606 0l25.501-25.501a7.5 7.5 0 0 0 0-10.606zM493.313.604l-156.958 45.88a7.487 7.487 0 0 0-3.199 1.896L228.265 153.271l-46.865 3.944c-66.587 5.604-129.28 34.713-176.53 81.963-9.945 9.945-3.733 26.967 10.262 28.189l91.08 7.956-9.436 9.437c-5.856 5.854-5.859 15.335 0 21.193l9.109 9.109-18.473 18.473c-7.235 7.234-7.235 19.007 0 26.241l64.815 64.815c7.234 7.235 19.008 7.235 26.241 0l18.472-18.472 8.62 8.62c6.12 6.121 16.069 6.1 22.17 0l8.948-8.948 7.956 91.079c.566 6.479 4.714 11.886 10.826 14.11 6.094 2.219 12.753.761 17.362-3.849 29.075-29.074 51.06-63.391 65.347-101.998a7.5 7.5 0 0 0-4.431-9.637 7.498 7.498 0 0 0-9.637 4.431c-13.53 36.563-34.352 69.063-61.886 96.597a1.54 1.54 0 0 1-2.638-.961l-9.051-103.622 91.792-91.792c-3.046 37.186-3.872 46.884-8.124 65.73a7.5 7.5 0 0 0 14.632 3.3c5.192-23.011 5.588-33.947 9.904-85.443l104.891-104.891a7.497 7.497 0 0 0 1.896-3.199l20.828-71.253.001-.002 25.052-85.704c3.231-11.052-7.066-21.31-18.085-18.083zM16.438 252.424a1.54 1.54 0 0 1-.96-2.638c44.748-44.748 104.121-72.315 167.18-77.623l29.17-2.455-91.767 91.767-103.623-9.051zm106.453 27.433l40.855 40.855-15.499 15.498c-16.185-16.185-37.23-37.21-40.865-40.844l15.509-15.509zm-3.439 85.149a19.112 19.112 0 0 0-2.5 3.096L98.018 349.17c-1.362-1.363-1.362-3.665 0-5.028l18.473-18.474 21.15 21.15-18.189 18.188zm17.304 16.57a4.473 4.473 0 0 1-6.33 0 4.481 4.481 0 0 1 0-6.33l149.499-149.499a4.48 4.48 0 0 1 6.33 0 4.474 4.474 0 0 1 0 6.33L185.986 332.346l-49.23 49.23zm31.104 32.408c-.895.894-1.959 1.028-2.514 1.028-.555 0-1.619-.134-2.514-1.028l-18.933-18.934a19.156 19.156 0 0 0 3.096-2.5l18.188-18.188 21.15 21.15-18.473 18.472zm49.262-9.852c-.016.016-.036.021-.053.035a.672.672 0 0 1-.903-.035l-40.375-40.377 15.498-15.499 40.854 40.855-15.021 15.021zm234.537-234.535L242.752 378.504l-40.854-40.855 95.331-95.331c6.871-6.871 8.19-18.62-.734-27.544-7.408-7.408-19.399-7.409-26.81 0l-95.332 95.332-40.855-40.855L342.405 60.344 407.552 41.3l63.148 63.149-19.041 65.148zm23.84-81.564l-51.531-51.531 72.815-21.285-21.284 72.816z" fill="#FFF"></path><path d="M381.911 130.093a49.824 49.824 0 0 0-14.763-10.208 7.5 7.5 0 1 0-6.173 13.671c22.293 10.068 27.56 39.396 10.328 56.627-13.643 13.642-35.84 13.642-49.482 0-17.242-17.242-11.997-46.547 10.328-56.627a7.5 7.5 0 0 0-6.173-13.671c-31.847 14.383-39.436 56.23-14.76 80.905 9.745 9.745 22.547 14.618 35.348 14.618 44.395 0 66.754-53.91 35.347-85.315z" fill="#FFF"></path>
		</symbol>
	
</svg>
